<svg xmlns="http://www.w3.org/2000/svg" width="1920" height="1080" viewBox="0 0 1920 1080"><rect x="0" y="500" width="70" height="580" rx="4" fill="#214735" stroke="none" stroke-width="0"/><rect x="80" y="403" width="70" height="677" rx="4" fill="#214735" stroke="none" stroke-width="0"/><rect x="160" y="306" width="70" height="774" rx="4" fill="#214735" stroke="none" stroke-width="0"/><rect x="240" y="499" width="70" height="581" rx="4" fill="#214735" stroke="none" stroke-width="0"/><rect x="320" y="402" width="70" height="678" rx="4" fill="#214735" stroke="none" stroke-width="0"/><rect x="400" y="305" width="70" height="775" rx="4" fill="#214735" stroke="none" stroke-width="0"/><rect x="480" y="498" width="70" height="582" rx="4" fill="#214735" stroke="none" stroke-width="0"/><rect x="560" y="401" width="70" height="679" rx="4" fill="#214735" stroke="none" stroke-width="0"/><rect x="640" y="304" width="70" height="776" rx="4" fill="#214735" stroke="none" stroke-width="0"/><rect x="720" y="497" width="70" height="583" rx="4" fill="#214735" stroke="none" stroke-width="0"/><rect x="800" y="400" width="70" height="680" rx="4" fill="#214735" stroke="none" stroke-width="0"/><rect x="880" y="303" width="70" height="777" rx="4" fill="#214735" stroke="none" stroke-width="0"/><rect x="960" y="496" width="70" height="584" rx="4" fill="#214735" stroke="none" stroke-width="0"/><rect x="1040" y="399" width="70" height="681" rx="4" fill="#214735" stroke="none" stroke-width="0"/><rect x="1120" y="302" width="70" height="778" rx="4" fill="#214735" stroke="none" stroke-width="0"/><rect x="1200" y="495" width="70" height="585" rx="4" fill="#214735" stroke="none" stroke-width="0"/><rect x="1280" y="398" width="70" height="682" rx="4" fill="#214735" stroke="none" stroke-width="0"/><rect x="1360" y="301" width="70" height="779" rx="4" fill="#214735" stroke="none" stroke-width="0"/><rect x="1440" y="494" width="70" height="586" rx="4" fill="#214735" stroke="none" stroke-width="0"/><rect x="1520" y="397" width="70" height="683" rx="4" fill="#214735" stroke="none" stroke-width="0"/><rect x="1600" y="300" width="70" height="780" rx="4" fill="#214735" stroke="none" stroke-width="0"/><rect x="1680" y="493" width="70" height="587" rx="4" fill="#214735" stroke="none" stroke-width="0"/><rect x="1760" y="396" width="70" height="684" rx="4" fill="#214735" stroke="none" stroke-width="0"/><rect x="1840" y="299" width="70" height="781" rx="4" fill="#214735" stroke="none" stroke-width="0"/></svg>